<?xml version="1.0" encoding="UTF-8" standalone="no"?>
<!DOCTYPE svg PUBLIC "-//W3C//DTD SVG 1.1//EN" "http://www.w3.org/Graphics/SVG/1.1/DTD/svg11.dtd">
<svg width="100%" height="100%" viewBox="0 0 201 66" version="1.1" xmlns="http://www.w3.org/2000/svg" xmlns:xlink="http://www.w3.org/1999/xlink" xml:space="preserve" xmlns:serif="http://www.serif.com/" style="fill-rule:evenodd;clip-rule:evenodd;stroke-linejoin:round;stroke-miterlimit:2;">
    <g transform="matrix(1,0,0,1,-265,-260)">
        <g id="glueone" transform="matrix(0.867965,0,0,0.789157,-487.201,249.381)">
            <rect x="866.626" y="13.457" width="231" height="83" style="fill:none;"/>
            <g transform="matrix(1.15212,0,0,1.26718,866.626,13.4567)">
                <path d="M38.982,47.779C38.372,49.673 37.521,51.441 36.431,53.082C34.741,55.628 32.487,57.662 29.656,59.169C26.885,60.645 23.672,61.414 20.004,61.414C14.889,61.414 10.994,60.063 8.231,57.65C5.195,54.999 3.749,51.441 4.066,46.91C4.195,45.076 5.72,43.654 7.558,43.654L9.015,43.654C8.378,42.896 7.82,42.048 7.34,41.109C6.265,39.001 5.694,36.542 5.694,33.717C5.694,32.515 5.806,31.215 6.039,29.819C6.041,29.811 6.042,29.802 6.044,29.793C6.63,26.432 7.799,23.486 9.519,20.945C11.296,18.32 13.449,16.314 15.952,14.901C18.544,13.438 21.284,12.713 24.169,12.713C26.526,12.713 28.553,13.181 30.269,14.043C30.898,13.46 31.738,13.11 32.648,13.11L39.192,13.11L40.278,6.975C40.574,5.304 42.026,4.086 43.724,4.086L52.203,4.086C53.238,4.086 54.22,4.544 54.885,5.337C55.55,6.13 55.83,7.177 55.65,8.196L54.78,13.11L59.988,13.11C61.022,13.11 62.003,13.567 62.668,14.358C63.333,15.15 63.614,16.195 63.436,17.213L60.808,32.237C60.805,32.251 60.803,32.265 60.8,32.279C60.742,32.586 60.711,32.884 60.711,33.171C60.711,33.447 60.643,33.694 60.797,33.842C60.987,34.024 61.285,33.985 61.624,33.985C62.316,33.985 62.915,33.817 63.398,33.406C63.949,32.937 64.25,32.233 64.435,31.366L67.153,16.001C67.448,14.329 68.901,13.11 70.599,13.11L79.078,13.11C80.112,13.11 81.094,13.567 81.759,14.359C82.024,14.675 82.228,15.032 82.366,15.411C82.724,15.203 83.09,15.005 83.463,14.818C86.255,13.422 89.304,12.713 92.615,12.713C97.196,12.713 100.797,14.059 103.49,16.54C105.447,18.343 106.763,20.588 107.374,23.298C107.474,23.113 107.576,22.928 107.682,22.745C109.488,19.615 111.974,17.156 115.144,15.37C118.271,13.609 121.75,12.713 125.589,12.713C128.576,12.713 131.236,13.35 133.581,14.574C134.634,15.123 135.584,15.768 136.434,16.506L136.521,16.005C136.815,14.331 138.269,13.11 139.969,13.11L148.448,13.11C149.322,13.11 150.159,13.437 150.799,14.017C152.689,13.218 154.715,12.813 156.877,12.813C160.71,12.813 163.681,13.998 165.871,16.142C166.482,16.74 167.017,17.399 167.472,18.122C168.861,16.79 170.428,15.69 172.171,14.818C174.963,13.422 178.012,12.713 181.323,12.713C185.904,12.713 189.505,14.059 192.198,16.54C194.99,19.112 196.475,22.582 196.475,27.023C196.475,28.348 196.369,29.533 196.17,30.58C196.014,31.465 195.785,32.408 195.477,33.407C195.309,33.956 195.013,34.44 194.63,34.83C194.673,35.382 194.586,35.945 194.363,36.47C192.908,39.907 190.555,42.727 187.281,44.91C184.026,47.08 180.373,48.175 176.315,48.175C172.116,48.175 168.722,47.025 166.078,44.873L166.075,44.892C165.778,46.562 164.326,47.779 162.629,47.779L154.2,47.779C153.164,47.779 152.181,47.32 151.516,46.526C150.851,45.732 150.572,44.684 150.754,43.664L153.431,28.645C153.489,28.313 153.526,28.021 153.526,27.767C153.526,27.471 153.578,27.207 153.413,27.045C153.229,26.866 152.941,26.903 152.613,26.903C151.901,26.903 151.29,27.085 150.806,27.527C150.205,28.075 149.888,28.879 149.712,29.87C149.68,30.049 149.634,30.223 149.577,30.391L147.036,44.883C146.742,46.557 145.288,47.779 143.588,47.779L135.109,47.779C134.075,47.779 133.094,47.321 132.429,46.529C132.095,46.132 131.858,45.67 131.728,45.181C131.514,45.309 131.297,45.434 131.077,45.556C127.939,47.293 124.459,48.175 120.631,48.175C117.645,48.175 114.997,47.548 112.674,46.345C112.021,46.007 111.408,45.631 110.834,45.219C110.693,45.366 110.545,45.512 110.391,45.655C108.593,47.322 106.425,48.175 103.871,48.175C101.541,48.175 99.728,47.444 98.36,46.191C98.11,45.963 97.881,45.725 97.671,45.477C94.648,47.271 91.294,48.175 87.607,48.175C83.543,48.175 80.232,47.097 77.627,45.077C77.259,46.651 75.852,47.779 74.219,47.779L65.74,47.779C64.858,47.779 64.015,47.446 63.373,46.857C61.486,47.667 59.482,48.076 57.36,48.076C53.91,48.076 51.158,47.109 49.044,45.338C48.589,46.774 47.249,47.779 45.707,47.779L38.982,47.779Z" style="fill:rgb(51,204,177);"/>
            </g>
            <g transform="matrix(1.15212,0,0,1.26718,866.626,13.4567)">
                <path d="M4.239,41.565C3.238,39.277 2.694,36.667 2.694,33.717C2.694,32.363 2.818,30.899 3.08,29.326C3.083,29.31 3.085,29.294 3.088,29.278C3.752,25.471 5.087,22.141 7.034,19.264C9.088,16.23 11.584,13.922 14.478,12.289C17.534,10.563 20.767,9.713 24.169,9.713C26.342,9.713 28.283,10.053 30.003,10.672C30.815,10.31 31.711,10.11 32.648,10.11C32.648,10.11 36.676,10.11 36.676,10.11L37.324,6.453C37.873,3.348 40.571,1.086 43.724,1.086L52.203,1.086C54.125,1.086 55.949,1.936 57.184,3.409C58.419,4.882 58.939,6.826 58.604,8.719C58.604,8.719 58.357,10.11 58.357,10.11L59.988,10.11C61.908,10.11 63.729,10.959 64.964,12.429C65.08,12.567 65.19,12.709 65.293,12.854C66.481,11.179 68.433,10.11 70.599,10.11L79.078,10.11C80.61,10.11 82.078,10.65 83.237,11.614C86.131,10.356 89.254,9.713 92.615,9.713C98.063,9.713 102.32,11.383 105.523,14.334C106.478,15.213 107.309,16.178 108.011,17.23C109.622,15.467 111.508,13.975 113.672,12.757C117.24,10.747 121.208,9.713 125.589,9.713C129.097,9.713 132.217,10.477 134.969,11.914C135.08,11.972 135.189,12.03 135.298,12.09C136.488,10.861 138.153,10.11 139.969,10.11L148.448,10.11C149.388,10.11 150.304,10.314 151.139,10.694C152.953,10.11 154.865,9.813 156.877,9.813C161.56,9.813 165.177,11.312 167.875,13.906C168.805,13.245 169.79,12.655 170.829,12.135C174.031,10.534 177.526,9.713 181.323,9.713C186.77,9.713 191.028,11.383 194.231,14.334C197.616,17.453 199.475,21.638 199.475,27.023C199.475,28.549 199.349,29.914 199.121,31.121C198.946,32.113 198.689,33.17 198.345,34.29C198.166,34.872 197.91,35.415 197.591,35.906C197.518,36.495 197.363,37.079 197.126,37.64C195.443,41.614 192.731,44.882 188.945,47.406C185.195,49.905 180.989,51.175 176.315,51.175C172.725,51.175 169.639,50.437 167.022,49.07C165.857,50.138 164.307,50.779 162.629,50.779L154.2,50.779C152.276,50.779 150.452,49.927 149.217,48.452C149.103,48.317 148.996,48.177 148.894,48.034C147.707,49.71 145.755,50.779 143.588,50.779L135.109,50.779C133.479,50.779 131.919,50.166 130.729,49.081C127.637,50.467 124.273,51.175 120.631,51.175C117.125,51.175 114.021,50.421 111.295,49.009C111.238,48.98 111.182,48.951 111.127,48.921C109.043,50.411 106.629,51.175 103.871,51.175C101.145,51.175 98.949,50.407 97.197,49.115C94.252,50.482 91.057,51.175 87.607,51.175C84.103,51.175 81.08,50.471 78.504,49.166C77.352,50.176 75.846,50.779 74.219,50.779L65.74,50.779C64.794,50.779 63.873,50.573 63.035,50.188C61.228,50.778 59.337,51.076 57.36,51.076C54.409,51.076 51.881,50.474 49.739,49.377C48.624,50.259 47.218,50.779 45.707,50.779L41.064,50.778C40.476,52.165 39.765,53.485 38.93,54.742C36.967,57.699 34.354,60.067 31.066,61.817C27.888,63.509 24.21,64.414 20.004,64.414C14.017,64.414 9.492,62.734 6.258,59.91C2.518,56.645 0.683,52.283 1.074,46.701C1.227,44.501 2.463,42.621 4.239,41.565Z" style="fill:rgb(255,219,114);"/>
            </g>
            <g transform="matrix(1.15212,0,0,1.26718,866.626,13.4567)">
                <path d="M38.982,47.779C38.372,49.673 37.521,51.441 36.431,53.082C34.741,55.628 32.487,57.662 29.656,59.169C26.885,60.645 23.672,61.414 20.004,61.414C14.889,61.414 10.994,60.063 8.231,57.65C5.195,54.999 3.749,51.441 4.066,46.91C4.195,45.076 5.72,43.654 7.558,43.654L9.015,43.654C8.378,42.896 7.82,42.048 7.34,41.109C6.265,39.001 5.694,36.542 5.694,33.717C5.694,32.515 5.806,31.215 6.039,29.819C6.041,29.811 6.042,29.802 6.044,29.793C6.63,26.432 7.799,23.486 9.519,20.945C11.296,18.32 13.449,16.314 15.952,14.901C18.544,13.438 21.284,12.713 24.169,12.713C26.526,12.713 28.553,13.181 30.269,14.043C30.898,13.46 31.738,13.11 32.648,13.11L39.192,13.11L40.278,6.975C40.574,5.304 42.026,4.086 43.724,4.086L52.203,4.086C53.238,4.086 54.22,4.544 54.885,5.337C55.55,6.13 55.83,7.177 55.65,8.196L54.78,13.11L59.988,13.11C61.022,13.11 62.003,13.567 62.668,14.358C63.333,15.15 63.614,16.195 63.436,17.213L60.808,32.237C60.805,32.251 60.803,32.265 60.8,32.279C60.742,32.586 60.711,32.884 60.711,33.171C60.711,33.447 60.643,33.694 60.797,33.842C60.987,34.024 61.285,33.985 61.624,33.985C62.316,33.985 62.915,33.817 63.398,33.406C63.949,32.937 64.25,32.233 64.435,31.366L67.153,16.001C67.448,14.329 68.901,13.11 70.599,13.11L79.078,13.11C80.112,13.11 81.094,13.567 81.759,14.359C82.024,14.675 82.228,15.032 82.366,15.411C82.724,15.203 83.09,15.005 83.463,14.818C86.255,13.422 89.304,12.713 92.615,12.713C97.196,12.713 100.797,14.059 103.49,16.54C105.447,18.343 106.763,20.588 107.374,23.298C107.474,23.113 107.576,22.928 107.682,22.745C109.488,19.615 111.974,17.156 115.144,15.37C118.271,13.609 121.75,12.713 125.589,12.713C128.576,12.713 131.236,13.35 133.581,14.574C134.634,15.123 135.584,15.768 136.434,16.506L136.521,16.005C136.815,14.331 138.269,13.11 139.969,13.11L148.448,13.11C149.322,13.11 150.159,13.437 150.799,14.017C152.689,13.218 154.715,12.813 156.877,12.813C160.71,12.813 163.681,13.998 165.871,16.142C166.482,16.74 167.017,17.399 167.472,18.122C168.861,16.79 170.428,15.69 172.171,14.818C174.963,13.422 178.012,12.713 181.323,12.713C185.904,12.713 189.505,14.059 192.198,16.54C194.99,19.112 196.475,22.582 196.475,27.023C196.475,28.348 196.369,29.533 196.17,30.58C196.014,31.465 195.785,32.408 195.477,33.407C195.309,33.956 195.013,34.44 194.63,34.83C194.673,35.382 194.586,35.945 194.363,36.47C192.908,39.907 190.555,42.727 187.281,44.91C184.026,47.08 180.373,48.175 176.315,48.175C172.116,48.175 168.722,47.025 166.078,44.873L166.075,44.892C165.778,46.562 164.326,47.779 162.629,47.779L154.2,47.779C153.164,47.779 152.181,47.32 151.516,46.526C150.851,45.732 150.572,44.684 150.754,43.664L153.431,28.645C153.489,28.313 153.526,28.021 153.526,27.767C153.526,27.471 153.578,27.207 153.413,27.045C153.229,26.866 152.941,26.903 152.613,26.903C151.901,26.903 151.29,27.085 150.806,27.527C150.205,28.075 149.888,28.879 149.712,29.87C149.68,30.049 149.634,30.223 149.577,30.391L147.036,44.883C146.742,46.557 145.288,47.779 143.588,47.779L135.109,47.779C134.075,47.779 133.094,47.321 132.429,46.529C132.095,46.132 131.858,45.67 131.728,45.181C131.514,45.309 131.297,45.434 131.077,45.556C127.939,47.293 124.459,48.175 120.631,48.175C117.645,48.175 114.997,47.548 112.674,46.345C112.021,46.007 111.408,45.631 110.834,45.219C110.693,45.366 110.545,45.512 110.391,45.655C108.593,47.322 106.425,48.175 103.871,48.175C101.541,48.175 99.728,47.444 98.36,46.191C98.11,45.963 97.881,45.725 97.671,45.477C94.648,47.271 91.294,48.175 87.607,48.175C83.543,48.175 80.232,47.097 77.627,45.077C77.259,46.651 75.852,47.779 74.219,47.779L65.74,47.779C64.858,47.779 64.015,47.446 63.373,46.857C61.486,47.667 59.482,48.076 57.36,48.076C53.91,48.076 51.158,47.109 49.044,45.338C48.589,46.774 47.249,47.779 45.707,47.779L38.982,47.779Z" style="fill:white;"/>
            </g>
            <g transform="matrix(1.15212,0,0,1.26718,560.174,-191.628)">
                <g transform="matrix(4.13209,0,0,4.13209,-870.845,-354.911)">
                    <path d="M280.972,128.983C281.444,128.983 281.844,129.079 282.172,129.271C282.5,129.463 282.728,129.715 282.856,130.027L283.024,129.079L285.076,129.079L283.9,135.763C283.788,136.379 283.566,136.937 283.234,137.437C282.902,137.937 282.458,138.335 281.902,138.631C281.346,138.927 280.7,139.075 279.964,139.075C278.972,139.075 278.208,138.841 277.672,138.373C277.136,137.905 276.896,137.271 276.952,136.471L278.98,136.471C279.004,136.727 279.122,136.929 279.334,137.077C279.546,137.225 279.828,137.299 280.18,137.299C280.604,137.299 280.964,137.177 281.26,136.933C281.556,136.689 281.752,136.299 281.848,135.763L282.016,134.815C281.76,135.127 281.438,135.381 281.05,135.577C280.662,135.773 280.232,135.871 279.76,135.871C279.288,135.871 278.87,135.763 278.506,135.547C278.142,135.331 277.858,135.023 277.654,134.623C277.45,134.223 277.348,133.755 277.348,133.219C277.348,132.971 277.372,132.703 277.42,132.415C277.54,131.727 277.776,131.123 278.128,130.603C278.48,130.083 278.904,129.683 279.4,129.403C279.896,129.123 280.42,128.983 280.972,128.983ZM282.436,132.427C282.46,132.283 282.472,132.151 282.472,132.031C282.472,131.639 282.358,131.331 282.13,131.107C281.902,130.883 281.612,130.771 281.26,130.771C280.852,130.771 280.48,130.917 280.144,131.209C279.808,131.501 279.596,131.903 279.508,132.415C279.484,132.559 279.472,132.691 279.472,132.811C279.472,133.203 279.586,133.513 279.814,133.741C280.042,133.969 280.328,134.083 280.672,134.083C281.08,134.083 281.452,133.935 281.788,133.639C282.124,133.343 282.34,132.939 282.436,132.427Z" style="fill:rgb(77,111,198);"/>
                </g>
                <g transform="matrix(4.13209,0,0,4.13209,-871.024,-354.911)">
                    <path d="M287.8,126.895L286.228,135.775L284.176,135.775L285.748,126.895L287.8,126.895Z" style="fill:rgb(77,111,198);"/>
                </g>
                <g transform="matrix(1,0,0,1,0,54.25)">
                    <path d="M341.884,142.331L340.208,151.873L331.729,151.873L332.374,148.104C331.283,149.327 329.952,150.311 328.382,151.055C326.812,151.798 325.134,152.17 323.349,152.17C320.572,152.17 318.391,151.385 316.804,149.815C315.217,148.245 314.424,146.055 314.424,143.245C314.424,142.187 314.506,141.229 314.672,140.369L317.548,124.204L325.977,124.204L323.349,139.229C323.25,139.758 323.2,140.27 323.2,140.766C323.2,142.154 323.589,143.22 324.366,143.964C325.142,144.708 326.225,145.08 327.613,145.08C329.2,145.08 330.547,144.609 331.655,143.667C332.762,142.724 333.497,141.377 333.861,139.625L336.588,124.204L345.067,124.204L343.395,133.728C343.888,132.574 344.495,131.499 345.216,130.502C346.77,128.353 348.704,126.7 351.018,125.543C353.332,124.386 355.86,123.808 358.604,123.808C362.174,123.808 365.009,124.775 367.108,126.708C369.207,128.642 370.257,131.279 370.257,134.617C370.257,135.708 370.174,136.683 370.009,137.543C369.876,138.303 369.678,139.113 369.414,139.972L350.224,139.972C350.191,140.171 350.175,140.485 350.175,140.915C350.175,142.369 350.571,143.476 351.365,144.237C352.158,144.997 353.216,145.377 354.538,145.377C356.654,145.377 358.273,144.485 359.397,142.7L368.422,142.7C368.184,143.261 367.917,143.801 367.62,144.322C368.693,143.472 369.985,143.047 371.496,143.047C372.785,143.047 373.81,143.402 374.57,144.113C374.757,144.287 374.92,144.474 375.061,144.672C374.668,143.447 374.471,142.111 374.471,140.667C374.471,137.526 375.215,134.667 376.703,132.088C378.19,129.51 380.24,127.485 382.851,126.014C385.463,124.543 388.372,123.808 391.578,123.808C393.958,123.808 396.082,124.295 397.95,125.27C399.818,126.246 401.264,127.609 402.289,129.361C403.313,131.113 403.826,133.146 403.826,135.46C403.826,135.811 403.816,136.158 403.798,136.502L405.958,124.204L414.437,124.204L413.792,127.923C414.883,126.7 416.214,125.725 417.784,124.998C419.354,124.27 421.048,123.907 422.866,123.907C425.643,123.907 427.825,124.684 429.412,126.237C430.998,127.791 431.792,129.956 431.792,132.733C431.792,133.452 431.732,134.212 431.612,135.011C432.171,133.363 432.942,131.86 433.924,130.502C435.477,128.353 437.411,126.7 439.725,125.543C442.039,124.386 444.568,123.808 447.312,123.808C450.882,123.808 453.717,124.775 455.816,126.708C457.915,128.642 458.964,131.279 458.964,134.617C458.964,135.708 458.882,136.683 458.716,137.543C458.584,138.303 458.386,139.113 458.121,139.972L438.932,139.972C438.899,140.171 438.882,140.485 438.882,140.915C438.882,142.369 439.279,143.476 440.072,144.237C440.866,144.997 441.924,145.377 443.246,145.377C445.361,145.377 446.981,144.485 448.105,142.7L457.13,142.7C455.94,145.509 454.006,147.807 451.328,149.592C448.651,151.377 445.642,152.27 442.304,152.27C438.734,152.27 435.882,151.278 433.75,149.294C431.618,147.311 430.552,144.617 430.552,141.212C430.552,141.14 430.553,141.068 430.553,140.995L428.618,151.873L420.189,151.873L422.866,136.849C422.965,136.287 423.015,135.791 423.015,135.361C423.015,133.973 422.627,132.898 421.85,132.138C421.073,131.378 419.99,130.998 418.602,130.998C416.949,130.998 415.561,131.51 414.437,132.535C413.313,133.559 412.586,134.997 412.255,136.849L412.255,136.601L409.578,151.873L401.098,151.873L403.064,140.683C402.698,141.863 402.2,142.99 401.57,144.063C400.065,146.625 397.999,148.633 395.371,150.088C392.743,151.542 389.826,152.27 386.62,152.27C384.24,152.27 382.124,151.79 380.273,150.832C378.422,149.873 376.992,148.518 375.984,146.766C375.867,146.564 375.758,146.358 375.655,146.148C375.692,146.377 375.711,146.616 375.711,146.865C375.711,148.352 375.141,149.625 374,150.683C372.86,151.741 371.48,152.27 369.86,152.27C368.538,152.27 367.488,151.914 366.711,151.203C365.934,150.493 365.546,149.592 365.546,148.501C365.546,147.919 365.63,147.37 365.797,146.856C364.89,147.873 363.831,148.785 362.62,149.592C359.943,151.377 356.935,152.27 353.596,152.27C350.026,152.27 347.175,151.278 345.043,149.294C343.15,147.534 342.097,145.212 341.884,142.331ZM361.678,135.659C361.744,135.196 361.778,134.882 361.778,134.716C361.778,133.394 361.364,132.378 360.538,131.667C359.711,130.956 358.621,130.601 357.265,130.601C355.811,130.601 354.53,131.039 353.422,131.915C352.315,132.791 351.513,134.039 351.018,135.659L361.678,135.659ZM450.386,135.659C450.452,135.196 450.485,134.882 450.485,134.716C450.485,133.394 450.072,132.378 449.246,131.667C448.419,130.956 447.328,130.601 445.973,130.601C444.518,130.601 443.238,131.039 442.13,131.915C441.023,132.791 440.221,134.039 439.725,135.659L450.386,135.659ZM387.81,144.981C389.198,144.981 390.446,144.559 391.553,143.716C392.661,142.873 393.52,141.782 394.132,140.443C394.743,139.105 395.049,137.708 395.049,136.254C395.049,134.601 394.603,133.328 393.71,132.435C392.818,131.543 391.694,131.097 390.339,131.097C388.917,131.097 387.669,131.518 386.595,132.361C385.52,133.204 384.686,134.303 384.091,135.659C383.496,137.014 383.198,138.435 383.198,139.923C383.198,141.543 383.628,142.791 384.487,143.667C385.347,144.543 386.454,144.981 387.81,144.981Z" style="fill:rgb(77,111,198);"/>
                </g>
            </g>
        </g>
    </g>
</svg>
